<svg width="93" height="44" xmlns="http://www.w3.org/2000/svg"><g fill="#0071c5" fill-rule="evenodd"><path d="M54 11h-3v15.379c0 1.805.76 3.372 3 3.621V11M13 16h-2.998L10 26.29c0 1.848.76 3.456 3 3.71V16M10 14h3v-3h-3zM33.978 30C31.186 30 30 28.08 30 26.185V13h3.424v3.645H36v2.733h-2.576v6.596c0 .774.372 1.205 1.186 1.205H36V30h-2.022M43.142 18.838c-1.161 0-2.059.603-2.433 1.42-.223.492-.3.869-.325 1.472h5.226c-.067-1.471-.727-2.892-2.468-2.892zm-2.758 5.229c0 1.755 1.08 3.045 3.009 3.045 1.5 0 2.246-.42 3.115-1.29l2.095 2.022C47.261 29.186 45.853 30 43.367 30 40.115 30 37 28.208 37 22.986 37 18.524 39.72 16 43.29 16c3.622 0 5.71 2.955 5.71 6.83v1.237h-8.616zM22.2 18.656c.995 0 1.408.477 1.408 1.251V29H27v-9.109c0-1.848-1.015-3.886-3.993-3.886L16 16v13h3.393V18.656h2.808M57.793 12.114c0-.182-.108-.241-.353-.241h-.233v.515c.034 0 .206.007.233.007.245 0 .353-.08.353-.251v-.03zm.367 1.283h-.28a.062.062 0 0 1-.057-.039l-.383-.644c-.004-.013-.038-.029-.052-.029H57.22v.641c0 .032-.025.07-.069.07h-.25c-.035 0-.064-.038-.064-.07v-1.62c0-.093.034-.133.116-.144a5.38 5.38 0 0 1 .46-.02c.463 0 .743.137.743.572v.03c0 .27-.133.412-.341.48l.394.67c.004.012.011.032.011.046 0 .026-.016.057-.06.057zm-.665-2.147c-.684 0-1.237.563-1.237 1.25 0 .684.553 1.241 1.237 1.241.685 0 1.247-.557 1.247-1.24 0-.688-.562-1.251-1.247-1.251zm0 2.75A1.496 1.496 0 0 1 56 12.5c0-.826.664-1.5 1.495-1.5.827 0 1.505.674 1.505 1.5s-.678 1.5-1.505 1.5z"/><path d="M65.708 12.5C62.61-2.771 33.288-3.738 14.387 7.895v1.284c18.88-9.812 45.659-9.753 48.1 4.312.814 4.65-1.776 9.501-6.406 12.289v3.646c5.572-2.063 11.288-8.745 9.627-16.926zM31.35 39.222C18.307 40.44 4.716 38.525 2.812 28.22c-.931-5.08 1.36-10.466 4.397-13.811V12.62C1.741 17.47-1.226 23.604.482 30.854c2.18 9.297 13.845 14.562 31.653 12.813 7.045-.692 16.263-2.984 22.677-6.541V32.07c-5.819 3.503-15.443 6.4-23.46 7.151z"/><path d="M54 11h-3v15.379c0 1.805.76 3.372 3 3.621V11M13 16h-2.998L10 26.29c0 1.848.76 3.456 3 3.71V16M10 14h3v-3h-3zM33.978 30C31.186 30 30 28.08 30 26.185V13h3.424v3.645H36v2.733h-2.576v6.596c0 .774.372 1.205 1.186 1.205H36V30h-2.022M43.142 18.838c-1.161 0-2.059.603-2.433 1.42-.223.492-.3.869-.325 1.472h5.226c-.067-1.471-.727-2.892-2.468-2.892zm-2.758 5.229c0 1.755 1.08 3.045 3.009 3.045 1.5 0 2.246-.42 3.115-1.29l2.095 2.022C47.261 29.186 45.853 30 43.367 30 40.115 30 37 28.208 37 22.986 37 18.524 39.72 16 43.29 16c3.622 0 5.71 2.955 5.71 6.83v1.237h-8.616zM22.2 18.656c.995 0 1.408.477 1.408 1.251V29H27v-9.109c0-1.848-1.015-3.886-3.993-3.886L16 16v13h3.393V18.656h2.808M57.793 12.114c0-.182-.108-.241-.353-.241h-.233v.515c.034 0 .206.007.233.007.245 0 .353-.08.353-.251v-.03zm.367 1.283h-.28a.062.062 0 0 1-.057-.039l-.383-.644c-.004-.013-.038-.029-.052-.029H57.22v.641c0 .032-.025.07-.069.07h-.25c-.035 0-.064-.038-.064-.07v-1.62c0-.093.034-.133.116-.144a5.38 5.38 0 0 1 .46-.02c.463 0 .743.137.743.572v.03c0 .27-.133.412-.341.48l.394.67c.004.012.011.032.011.046 0 .026-.016.057-.06.057zm-.665-2.147c-.684 0-1.237.563-1.237 1.25 0 .684.553 1.241 1.237 1.241.685 0 1.247-.557 1.247-1.24 0-.688-.562-1.251-1.247-1.251zm0 2.75A1.496 1.496 0 0 1 56 12.5c0-.826.664-1.5 1.495-1.5.827 0 1.505.674 1.505 1.5s-.678 1.5-1.505 1.5zM79.147 25.315h2.592L80.423 14.84l-1.276 10.475zM74 35l4.102-26h4.681L87 35h-3.985l-.85-6.256H78.68L77.908 35H74zM89 35h4V9h-4z"/></g></svg>